<!--
<svg xmlns="http://www.w3.org/2000/svg" viewBox="0 0 71 48" fill="currentColor" aria-hidden="true">
    <path
            d="m26.371 33.477-.552-.1c-3.92-.729-6.397-3.1-7.57-6.829-.733-2.324.597-4.035 3.035-4.148 1.995-.092 3.362 1.055 4.57 2.39 1.557 1.72 2.984 3.558 4.514 5.305 2.202 2.515 4.797 4.134 8.347 3.634 3.183-.448 5.958-1.725 8.371-3.828.363-.316.761-.592 1.144-.886l-.241-.284c-2.027.63-4.093.841-6.205.735-3.195-.16-6.24-.828-8.964-2.582-2.486-1.601-4.319-3.746-5.19-6.611-.704-2.315.736-3.934 3.135-3.6.948.133 1.746.56 2.463 1.165.583.493 1.143 1.015 1.738 1.493 2.8 2.25 6.712 2.375 10.265-.068-5.842-.026-9.817-3.24-13.308-7.313-1.366-1.594-2.7-3.216-4.095-4.785-2.698-3.036-5.692-5.71-9.79-6.623C12.8-.623 7.745.14 2.893 2.361 1.926 2.804.997 3.319 0 4.149c.494 0 .763.006 1.032 0 2.446-.064 4.28 1.023 5.602 3.024.962 1.457 1.415 3.104 1.761 4.798.513 2.515.247 5.078.544 7.605.761 6.494 4.08 11.026 10.26 13.346 2.267.852 4.591 1.135 7.172.555ZM10.751 3.852c-.976.246-1.756-.148-2.56-.962 1.377-.343 2.592-.476 3.897-.528-.107.848-.607 1.306-1.336 1.49Zm32.002 37.924c-.085-.626-.62-.901-1.04-1.228-1.857-1.446-4.03-1.958-6.333-2-1.375-.026-2.735-.128-4.031-.61-.595-.22-1.26-.505-1.244-1.272.015-.78.693-1 1.31-1.184.505-.15 1.026-.247 1.6-.382-1.46-.936-2.886-1.065-4.787-.3-2.993 1.202-5.943 1.06-8.926-.017-1.684-.608-3.179-1.563-4.735-2.408l-.077.057c1.29 2.115 3.034 3.817 5.004 5.271 3.793 2.8 7.936 4.471 12.784 3.73A66.714 66.714 0 0 1 37 40.877c1.98-.16 3.866.398 5.753.899Zm-9.14-30.345c-.105-.076-.206-.266-.42-.069 1.745 2.36 3.985 4.098 6.683 5.193 4.354 1.767 8.773 2.07 13.293.51 3.51-1.21 6.033-.028 7.343 3.38.19-3.955-2.137-6.837-5.843-7.401-2.084-.318-4.01.373-5.962.94-5.434 1.575-10.485.798-15.094-2.553Zm27.085 15.425c.708.059 1.416.123 2.124.185-1.6-1.405-3.55-1.517-5.523-1.404-3.003.17-5.167 1.903-7.14 3.972-1.739 1.824-3.31 3.87-5.903 4.604.043.078.054.117.066.117.35.005.699.021 1.047.005 3.768-.17 7.317-.965 10.14-3.7.89-.86 1.685-1.817 2.544-2.71.716-.746 1.584-1.159 2.645-1.07Zm-8.753-4.67c-2.812.246-5.254 1.409-7.548 2.943-1.766 1.18-3.654 1.738-5.776 1.37-.374-.066-.75-.114-1.124-.17l-.013.156c.135.07.265.151.405.207.354.14.702.308 1.07.395 4.083.971 7.992.474 11.516-1.803 2.221-1.435 4.521-1.707 7.013-1.336.252.038.503.083.756.107.234.022.479.255.795.003-2.179-1.574-4.526-2.096-7.094-1.872Zm-10.049-9.544c1.475.051 2.943-.142 4.486-1.059-.452.04-.643.04-.827.076-2.126.424-4.033-.04-5.733-1.383-.623-.493-1.257-.974-1.889-1.457-2.503-1.914-5.374-2.555-8.514-2.5.05.154.054.26.108.315 3.417 3.455 7.371 5.836 12.369 6.008Zm24.727 17.731c-2.114-2.097-4.952-2.367-7.578-.537 1.738.078 3.043.632 4.101 1.728a13 13 0 0 0 1.182 1.106c1.6 1.29 4.311 1.352 5.896.155-1.861-.726-1.861-.726-3.601-2.452Zm-21.058 16.06c-1.858-3.46-4.981-4.24-8.59-4.008a9.667 9.667 0 0 1 2.977 1.39c.84.586 1.547 1.311 2.243 2.055 1.38 1.473 3.534 2.376 4.962 2.07-.656-.412-1.238-.848-1.592-1.507Zl-.006.006-.036-.004.021.018.012.053Za.127.127 0 0 0 .015.043c.005.008.038 0 .058-.002Zl-.008.01.005.026.024.014Z"
            fill="#FD4F00"
    />
</svg>
-->
<svg id="svg" version="1.1" xmlns="http://www.w3.org/2000/svg" style="display: block;" viewBox="0 0 2048 2048" fill="currentColor" aria-hidden="true">
    <path d="M0 0 C675.84 0 1351.68 0 2048 0 C2048 675.84 2048 1351.68 2048 2048 C1372.16 2048 696.32 2048 0 2048 C0 1372.16 0 696.32 0 0 Z "
          transform="translate(0,0)" style="fill: #FCFCFC;"/>
    <path d="M0 0 C1.90050869 -0.07269567 1.90050869 -0.07269567 3.8394115 -0.14685994 C7.34635912 -0.2789234 10.85294548 -0.36121433 14.36155248 -0.43435419 C17.3749982 -0.50353204 20.38721805 -0.60186626 23.39983079 -0.70023509 C34.20996502 -1.05232648 45.02167376 -1.28701023 55.83538818 -1.49641418 C56.69280353 -1.51321142 57.55021888 -1.53000866 58.43361652 -1.54731491 C75.53482336 -1.8804566 92.63666499 -2.16367125 109.74007034 -2.35491467 C113.50118082 -2.39771472 117.26228257 -2.44119434 121.02337646 -2.48542786 C121.95794775 -2.49638016 122.89251904 -2.50733246 123.85541067 -2.51861665 C137.93971542 -2.68979512 152.0098215 -3.0549202 166.08685303 -3.53132629 C187.77271976 -4.25516037 209.4489912 -4.71391619 231.14788818 -4.68391418 C232.01803724 -4.6830214 232.88818629 -4.68212862 233.78470349 -4.68120879 C310.8520527 -4.51748819 310.8520527 -4.51748819 338.4029541 22.52084351 C348.45829245 33.01755981 356.86752801 44.732652 363.69878769 57.54609203 C366.59529481 62.21269018 370.65082249 65.59027147 374.75726318 69.17155457 C380.33904764 74.14808529 385.58349206 79.44076734 390.82293701 84.77433777 C394.21591386 88.21071267 397.59093185 91.42986042 401.44476318 94.35905457 C403.25726318 95.98405457 403.25726318 95.98405457 404.44476318 97.35905457 C404.44476318 98.01905457 404.44476318 98.67905457 404.44476318 99.35905457 C405.10476318 99.35905457 405.76476318 99.35905457 406.44476318 99.35905457 C408.90610975 103.05107442 408.72858464 105.84308761 408.70977783 110.1136322 C408.7141591 110.91163278 408.71854037 111.70963336 408.72305441 112.53181577 C408.73540922 115.21484506 408.73356393 117.89767974 408.73187256 120.58073425 C408.73789468 122.50083202 408.74481839 124.42092715 408.75257874 126.34101868 C408.76748763 130.48091661 408.77622198 134.62076614 408.7802887 138.76068878 C408.78699298 145.30746295 408.80873758 151.85413353 408.83282471 158.40086365 C408.88184259 172.3035697 408.91411745 186.20629772 408.94476318 200.10905457 C408.97783899 215.10339955 409.01378941 230.09770414 409.06889391 245.09198689 C409.09223649 251.59889016 409.10598228 258.10572178 409.11238861 264.61266279 C409.11833132 268.66430375 409.1324318 272.71588676 409.14873314 276.76749802 C409.15460445 278.64479443 409.15708233 280.52210503 409.15589333 282.39941025 C409.15473167 284.96524389 409.16577085 287.5307529 409.17974854 290.09654236 C409.17480007 291.20682678 409.17480007 291.20682678 409.16975164 292.3395412 C409.21152014 296.99642106 410.0312409 300.93499122 411.44476318 305.35905457 C411.70355225 307.67912292 411.70355225 307.67912292 411.71038818 309.69889832 C411.71296631 310.45235535 411.71554443 311.20581238 411.71820068 311.98210144 C411.71046631 312.74587097 411.70273193 313.5096405 411.69476318 314.29655457 C411.70249756 315.05645691 411.71023193 315.81635925 411.71820068 316.59928894 C411.7143335 317.73140808 411.7143335 317.73140808 411.71038818 318.88639832 C411.70813232 319.55405212 411.70587646 320.22170593 411.70355225 320.90959167 C411.44476318 323.35905457 411.44476318 323.35905457 410.44525146 326.72355652 C408.97594889 332.3885643 409.16440781 338.11693658 409.17036819 343.93517303 C409.17134318 346.03741111 409.15828195 348.13915145 409.14138794 350.24131775 C409.09538104 356.21184114 409.07048512 362.18230487 409.06390381 368.15299988 C409.05889049 371.81937293 409.03466631 375.48521288 408.99857712 379.15140533 C408.98878954 380.54361014 408.98644155 381.93588828 408.99174881 383.32811737 C408.99881603 385.27106491 408.97945268 387.21405419 408.95892334 389.15690613 C408.95464828 390.81281769 408.95464828 390.81281769 408.95028687 392.50218201 C408.33041314 396.00528244 407.23024071 397.21309269 404.44476318 399.35905457 C403.78476318 399.35905457 403.12476318 399.35905457 402.44476318 399.35905457 C402.44476318 400.01905457 402.44476318 400.67905457 402.44476318 401.35905457 C401.2177124 402.56047058 401.2177124 402.56047058 399.37445068 404.05046082 C395.16284465 407.63004752 391.27307673 411.45947931 387.39007568 415.38639832 C386.75849548 416.02364838 386.12691528 416.66089844 385.47619629 417.31745911 C382.82874255 419.99203108 380.1854713 422.67066884 377.54632568 425.35343933 C375.60271241 427.32706706 373.65307768 429.29458186 371.70257568 431.26139832 C370.80419479 432.17996864 370.80419479 432.17996864 369.88766479 433.11709595 C368.4442041 434.56935008 366.9489869 435.96983469 365.44476318 437.35905457 C364.78476318 437.35905457 364.12476318 437.35905457 363.44476318 437.35905457 C363.19726318 437.945578 362.94976318 438.53210144 362.69476318 439.13639832 C361.26093823 441.68591831 359.69783514 443.07022522 357.44476318 444.92155457 C354.88703856 447.03261772 353.31162818 448.55875707 351.44476318 451.35905457 C350.78476318 451.35905457 350.12476318 451.35905457 349.44476318 451.35905457 C349.44476318 452.01905457 349.44476318 452.67905457 349.44476318 453.35905457 C348.01034026 454.55996678 346.57147348 455.75619298 345.10491943 456.91764832 C343.41360187 458.38610992 342.08342279 459.91811273 340.69476318 461.67155457 C339.95226318 462.55842957 339.20976318 463.44530457 338.44476318 464.35905457 C337.78476318 464.35905457 337.12476318 464.35905457 336.44476318 464.35905457 C336.10445068 465.19436707 336.10445068 465.19436707 335.75726318 466.04655457 C334.07264014 469.01469993 331.88625556 470.96878231 329.44476318 473.35905457 C328.4638519 474.34821296 327.48472787 475.33914643 326.50726318 476.33171082 C325.48645322 477.36168189 324.46561965 478.39162958 323.44476318 479.42155457 C322.93687256 479.9378241 322.42898193 480.45409363 321.90570068 480.98600769 C318.90096309 484.01000642 315.80866775 486.72867604 312.44476318 489.35905457 C310.75860536 491.00599942 309.08906147 492.67031578 307.44476318 494.35905457 C305.44476318 496.35905457 305.44476318 496.35905457 303.16243553 496.60794353 C302.19956942 496.60739877 301.2367033 496.606854 300.24465942 496.60629272 C298.58116786 496.61262883 298.58116786 496.61262883 296.8840704 496.61909294 C295.65548085 496.61344385 294.42689131 496.60779476 293.16107178 496.60197449 C291.86355012 496.60360659 290.56602846 496.60523869 289.22918797 496.60692024 C286.3717137 496.6103011 283.51433926 496.60716929 280.6568737 496.59946632 C276.80743795 496.58948534 272.95812058 496.59133831 269.10867971 496.59733146 C251.73917459 496.62435902 234.37250414 496.54628194 217.00395381 496.3655591 C209.62964787 496.29119007 202.25521644 496.23252054 194.88072562 496.1799736 C192.99816576 496.16650562 191.11561012 496.15243577 189.23305917 496.13777542 C163.12072134 495.94024769 137.27523229 496.70509094 111.23183894 498.59167761 C94.79764636 499.77481223 78.34796488 500.63781462 61.88226318 501.23405457 C61.04125911 501.26511559 60.20025503 501.29617661 59.33376598 501.32817888 C17.01101845 502.83158905 -16.56960888 500.33410005 -48.77851868 470.72724915 C-66.18553777 454.37623571 -81.54984633 435.43701054 -94.88083744 415.67663383 C-97.97227542 411.17854318 -101.20165208 407.62154523 -105.43950653 404.17131996 C-106.13769753 403.57327238 -106.83588852 402.9752248 -107.55523682 402.35905457 C-108.06921843 401.98807921 -108.58320004 401.61710386 -109.11275685 401.23488683 C-111.8235678 399.02455346 -113.33452682 397.346862 -114.10960126 393.87794662 C-114.33730579 390.72032924 -114.36428808 387.61311884 -114.33059692 384.44732666 C-114.341368 383.23840757 -114.35213907 382.02948849 -114.36323655 380.78393549 C-114.38688415 377.43544925 -114.38366402 374.08895623 -114.36890292 370.74054921 C-114.35943987 367.1268962 -114.38445869 363.51345643 -114.40493774 359.89987183 C-114.43932556 352.82358793 -114.44099162 345.74765911 -114.43051194 338.67131335 C-114.42242831 332.91966783 -114.42531583 327.16812725 -114.43600845 321.41648674 C-114.4375053 320.59781381 -114.43900214 319.77914089 -114.44054434 318.93565969 C-114.4436073 317.27251699 -114.446684 315.60937431 -114.44977428 313.94623166 C-114.4772285 298.35056961 -114.46634607 282.75510823 -114.44340385 267.15945076 C-114.42353753 252.89273771 -114.44942188 238.62654336 -114.49727224 224.35991032 C-114.546041 209.70902176 -114.56527342 195.05837486 -114.55196679 180.40740675 C-114.54497939 172.18270657 -114.54946543 163.95840537 -114.58446884 155.73376656 C-114.61389681 148.73235553 -114.6152066 141.73162439 -114.58032702 134.73022682 C-114.56328686 131.15834705 -114.55905034 127.5876821 -114.58963013 124.01586533 C-114.62238054 120.14254203 -114.593066 116.27109799 -114.55764771 112.39776611 C-114.57685772 111.27052803 -114.59606773 110.14328994 -114.61585987 108.98189312 C-114.47521791 101.52065094 -114.47521791 101.52065094 -111.80561471 98.14992797 C-109.80079902 96.37945029 -107.76550819 94.86021435 -105.55523682 93.35905457 C-103.82189813 91.82208012 -102.09204668 90.28115151 -100.36773682 88.73405457 C-99.17084229 87.66284363 -99.17084229 87.66284363 -97.94976807 86.56999207 C-95.41633766 84.2308051 -92.98588319 81.80347388 -90.55523682 79.35905457 C-89.2962201 78.09471524 -88.03718532 76.83039389 -86.77813721 75.56608582 C-86.07713394 74.86185486 -85.37613068 74.1576239 -84.65388489 73.43205261 C-81.48000358 70.2447676 -78.30345668 67.06014484 -75.12677002 63.87565613 C-73.45497346 62.19881669 -71.78407359 60.52108279 -70.11407471 58.842453 C-67.69189214 56.40810346 -65.26646123 53.977031 -62.84039307 51.54655457 C-62.09959 50.80059021 -61.35878693 50.05462585 -60.59553528 49.28605652 C-56.72839174 45.41849817 -52.80144482 41.80458049 -48.55523682 38.35905457 C-46.86895667 36.71223495 -45.20245776 35.04494267 -43.55523682 33.35905457 C-42.58948098 32.4016156 -41.62195897 31.44595563 -40.65289307 30.49186707 C-35.8490856 25.73733343 -31.14407398 21.01617924 -26.84039307 15.79655457 C-25.55523682 14.35905457 -25.55523682 14.35905457 -22.61773682 11.92155457 C-19.63474415 9.64509155 -19.63474415 9.64509155 -18.1663096 7.40658969 C-13.1339031 0.36830598 -8.28853858 0.11894786 0 0 Z "
          transform="translate(478.55523681640625,774.6409454345703)" style="fill: #E4E4E3;"/>
    <path d="M0 0 C25.58424156 -1.79453404 51.1742792 -3.00821428 76.8125 -3.6875 C77.74492208 -3.71279266 78.67734417 -3.73808532 79.63802147 -3.76414442 C163.65775078 -5.97528644 163.65775078 -5.97528644 189.11824036 16.84214783 C193.15084549 20.70391218 196.76078987 24.83338383 200.25 29.1875 C200.80752079 29.8828397 201.36504158 30.5781794 201.93945694 31.29459 C208.13504227 39.1615692 213.54187391 47.31906624 218.24224854 56.15885925 C221.13963852 60.84205419 225.19560479 64.22209938 229.3125 67.8125 C234.89428446 72.78903072 240.13872887 78.08171278 245.37817383 83.4152832 C248.77115068 86.85165811 252.14616866 90.07080585 256 93 C257.8125 94.625 257.8125 94.625 259 96 C259 96.66 259 97.32 259 98 C259.66 98 260.32 98 261 98 C263.46134657 101.69201985 263.28382146 104.48403304 263.26501465 108.75457764 C263.26939592 109.55257821 263.27377719 110.35057879 263.27829123 111.1727612 C263.29064604 113.8557905 263.28880074 116.53862517 263.28710938 119.22167969 C263.2931315 121.14177746 263.30005521 123.06187258 263.30781555 124.98196411 C263.32272444 129.12186205 263.33145879 133.26171157 263.33552551 137.40163422 C263.3422298 143.94840839 263.3639744 150.49507897 263.38806152 157.04180908 C263.4370794 170.94451513 263.46935427 184.84724316 263.5 198.75 C263.53307581 213.74434499 263.56902623 228.73864958 263.62413073 243.73293233 C263.64747331 250.2398356 263.66121909 256.74666722 263.66762543 263.25360823 C263.67356814 267.30524919 263.68766862 271.3568322 263.70396996 275.40844345 C263.70984127 277.28573986 263.71231914 279.16305046 263.71113014 281.04035568 C263.70996848 283.60618933 263.72100767 286.17169833 263.73498535 288.73748779 C263.73168638 289.47767741 263.7283874 290.21786703 263.72498846 290.98048663 C263.76675695 295.63736649 264.58647772 299.57593666 266 304 C266.25878906 306.32006836 266.25878906 306.32006836 266.265625 308.33984375 C266.26820313 309.09330078 266.27078125 309.84675781 266.2734375 310.62304688 C266.26570313 311.38681641 266.25796875 312.15058594 266.25 312.9375 C266.25773437 313.69740234 266.26546875 314.45730469 266.2734375 315.24023438 C266.26957031 316.37235352 266.26957031 316.37235352 266.265625 317.52734375 C266.26336914 318.19499756 266.26111328 318.86265137 266.25878906 319.55053711 C266 322 266 322 265.00048828 325.36450195 C263.5311857 331.02950974 263.71964463 336.75788201 263.72560501 342.57611847 C263.72658 344.67835654 263.71351876 346.78009688 263.69662476 348.88226318 C263.65061785 354.85278657 263.62572194 360.8232503 263.61914062 366.79394531 C263.61412731 370.46031836 263.58990313 374.12615832 263.55381393 377.79235077 C263.54402636 379.18455557 263.54167837 380.57683372 263.54698563 381.96906281 C263.55405285 383.91201035 263.5346895 385.85499963 263.51416016 387.79785156 C263.51131012 388.9017926 263.50846008 390.00573364 263.50552368 391.14312744 C262.88564996 394.64622788 261.78547753 395.85403812 259 398 C258.34 398 257.68 398 257 398 C257 398.66 257 399.32 257 400 C255.77294922 401.20141602 255.77294922 401.20141602 253.9296875 402.69140625 C249.71808147 406.27099296 245.82831355 410.10042474 241.9453125 414.02734375 C241.3137323 414.66459381 240.6821521 415.30184387 240.03143311 415.95840454 C237.38397936 418.63297652 234.74070812 421.31161427 232.1015625 423.99438477 C230.15794923 425.9680125 228.2083145 427.93552729 226.2578125 429.90234375 C225.35943161 430.82091408 225.35943161 430.82091408 224.44290161 431.75804138 C222.99944092 433.21029552 221.50422372 434.61078013 220 436 C219.34 436 218.68 436 218 436 C217.7525 436.58652344 217.505 437.17304687 217.25 437.77734375 C215.81617504 440.32686375 214.25307196 441.71117065 212 443.5625 C209.44227537 445.67356316 207.866865 447.19970251 206 450 C205.34 450 204.68 450 204 450 C204 450.66 204 451.32 204 452 C202.56557708 453.20091221 201.12671029 454.39713842 199.66015625 455.55859375 C197.96883869 457.02705535 196.63865961 458.55905817 195.25 460.3125 C194.5075 461.199375 193.765 462.08625 193 463 C192.34 463 191.68 463 191 463 C190.6596875 463.8353125 190.6596875 463.8353125 190.3125 464.6875 C188.62787695 467.65564537 186.44149237 469.60972775 184 472 C183.01908872 472.98915839 182.03996468 473.98009186 181.0625 474.97265625 C180.04169004 476.00262733 179.02085647 477.03257501 178 478.0625 C177.49210938 478.57876953 176.98421875 479.09503906 176.4609375 479.62695312 C173.45619991 482.65095186 170.36390456 485.36962147 167 488 C165.31384218 489.64694485 163.64429829 491.31126121 162 493 C160 495 160 495 157.27353573 495.24888897 C156.10415746 495.2483442 154.93477919 495.24779943 153.72996521 495.24723816 C153.0796771 495.24965257 152.42938899 495.25206699 151.75939518 495.25455457 C149.57053444 495.26021072 147.38196307 495.25151428 145.19311523 495.24291992 C143.6279594 495.24399232 142.06280395 495.24593037 140.49765015 495.24867249 C136.23953376 495.25353032 131.98152176 495.24585379 127.723418 495.23571944 C123.27557917 495.22695555 118.82774377 495.22869605 114.37989807 495.2290802 C106.91055548 495.22814289 99.44125345 495.21944941 91.97192383 495.20581055 C83.32409279 495.19007858 74.67630619 495.1848126 66.02846187 495.1855461 C57.72361471 495.18615549 49.41878209 495.1810586 41.11393929 495.17275429 C37.57287546 495.16921478 34.03181678 495.16739009 30.49075127 495.16686058 C26.32526765 495.16585936 22.15982165 495.15978097 17.99435043 495.14969444 C16.46122912 495.1467625 14.92810348 495.14554547 13.39497948 495.14612198 C11.31096279 495.14660928 9.22705301 495.14099074 7.14305115 495.13371277 C5.9740499 495.13203692 4.80504866 495.13036108 3.60062313 495.12863445 C1 495 1 495 0 494 C-0.10837866 492.30480165 -0.14686179 490.60510021 -0.15821838 488.90647888 C-0.1680072 487.80285004 -0.17779602 486.69922119 -0.18788147 485.56214905 C-0.19651466 483.73012184 -0.19651466 483.73012184 -0.20532227 481.86108398 C-0.21522186 480.58322021 -0.22512146 479.30535645 -0.23532104 477.98876953 C-0.2624333 474.47449824 -0.28340851 470.96021342 -0.30332303 467.44589496 C-0.32514374 463.77697946 -0.35255152 460.10810593 -0.37937927 456.43922424 C-0.42935927 449.48712609 -0.47427833 442.53500471 -0.51740164 435.58286101 C-0.56672876 427.6700224 -0.62166361 419.75722588 -0.67708123 411.84442794 C-0.79098271 395.56299073 -0.89780387 379.28151498 -1 363 C-1.93787354 362.70810791 -2.87574707 362.41621582 -3.84204102 362.11547852 C-12.90213885 358.9152012 -20.73473472 348.98802567 -25.24609375 340.71484375 C-31.35733445 327.66409896 -32.89239456 310.51779386 -28 296.8125 C-20.95347332 281.69306181 -10.09542187 272.58483423 5 266 C5.70253906 265.69320313 6.40507813 265.38640625 7.12890625 265.0703125 C22.84389168 259.10415365 40.12118132 259.6114498 56.625 259.8125 C58.80728231 259.82759163 60.98957485 259.84127202 63.171875 259.85351562 C68.44814504 259.88612561 73.72402252 259.93596104 79 260 C78.91802737 256.20752038 78.80529057 252.41652281 78.6875 248.625 C78.66494141 247.56410156 78.64238281 246.50320313 78.61914062 245.41015625 C78.33294798 236.92844694 77.32886088 228.61027728 72.3125 221.5 C70 218.17109145 70 218.17109145 70 216 C69.2265625 215.62875 69.2265625 215.62875 68.4375 215.25 C65.92660708 213.96236261 63.55468963 212.50990234 61.171875 211 C50.40999009 206.04488752 33.86156667 205.79892252 22.75 209.625 C20.30414791 210.70208818 20.30414791 210.70208818 18 212 C17.13375 212.45890625 16.2675 212.9178125 15.375 213.390625 C6.42159581 218.34799427 6.42159581 218.34799427 0 226 C-5.72996169 225.83566075 -8.62475092 221.82273925 -12.3125 217.9375 C-12.95767578 217.27427734 -13.60285156 216.61105469 -14.26757812 215.92773438 C-15.85447018 214.29382329 -17.43126328 212.65131853 -19 211 C-17.3010013 207.34588417 -15.34878105 205.24540072 -12.3125 202.5625 C-11.48363281 201.82128906 -10.65476562 201.08007812 -9.80078125 200.31640625 C-7 198 -7 198 -5.22483009 196.95876771 C-3.25335297 195.77624016 -1.62686476 194.62865421 0 193 C0.71194387 190.00009432 0.92466297 188.06499341 0.84178162 185.07170105 C0.84776259 184.27930332 0.85374356 183.48690559 0.85990578 182.67049581 C0.87142826 180.01772518 0.83295961 177.3680606 0.79467773 174.71557617 C0.79270303 172.81338575 0.79381191 170.91119 0.79777527 169.00900269 C0.79978501 163.84577328 0.75861023 158.68368053 0.70975757 153.52071548 C0.66601956 148.12489686 0.66188811 142.72905263 0.65357971 137.33308411 C0.63181664 127.11549253 0.57436472 116.89842478 0.50413328 106.68106395 C0.42591088 95.0488371 0.38740856 83.41658533 0.35226524 71.78416097 C0.27908299 47.85581682 0.15594613 23.92793775 0 0 Z "
          transform="translate(624,776)" style="fill: #D2D2D3;"/>
    <path d="M0 0 C11.22 0 22.44 0 34 0 C48.94735282 27.72054523 48.94735282 27.72054523 54.1875 38.375 C57.42470411 44.94924847 60.82510013 51.40193051 64.375 57.8125 C70.15261009 68.25601034 75.57933791 78.86821971 81 89.5 C86.92998903 101.13036269 92.91969634 112.70292228 99.23144531 124.13183594 C110 143.64442552 110 143.64442552 110 147 C110.66 147 111.32 147 112 147 C112.12304001 146.4273642 112.24608002 145.85472839 112.37284851 145.26473999 C113.02722363 142.90169129 113.91913653 140.94600589 115.03442383 138.76416016 C115.45609329 137.93453766 115.87776276 137.10491516 116.31221008 136.25015259 C116.77250107 135.35549286 117.23279205 134.46083313 117.70703125 133.5390625 C118.42798225 132.12758438 118.42798225 132.12758438 119.16349792 130.68759155 C120.18797805 128.68426149 121.21451052 126.68197987 122.24291992 124.68066406 C123.77334179 121.70123335 125.29641024 118.71814074 126.81835938 115.734375 C132.27434683 105.06798658 137.8744552 94.49648366 143.64546204 83.99734497 C148.18231822 75.72204848 152.4995735 67.34418123 156.76794434 58.92797852 C163.88287593 44.90677674 171.13982108 30.99237125 178.765625 17.24121094 C181.91088059 11.53048184 184.94426262 5.75888968 188 0 C198.89 0 209.78 0 221 0 C221 80.52 221 161.04 221 244 C211.76 244 202.52 244 193 244 C193 178.99 193 113.98 193 47 C187.39 57.56 181.78 68.12 176 79 C170.0625 89.875 170.0625 89.875 167.203125 95.09375 C161.19344959 106.12563169 155.37169974 117.25963219 149.50563049 128.36827087 C145.71156568 135.55100754 141.89967096 142.72422121 138.08551025 149.89630127 C131.69383952 161.91522982 125.32283117 173.9446757 119 186 C113.72 186 108.44 186 103 186 C100.60289591 181.66736513 98.20679968 177.33418429 95.8125 173 C95.45030365 172.34441101 95.0881073 171.68882202 94.7149353 171.0133667 C89.33009081 161.26282936 84.00560877 151.48176603 78.72363281 141.67504883 C75.0938389 134.95903439 71.35120978 128.31488573 67.5625 121.6875 C62.12452511 112.16198066 57.04084315 102.47765358 52.03295898 92.72021484 C48.30001909 85.45965461 44.43684305 78.29588241 40.42529297 71.1862793 C36.34869176 63.92349691 32.6549701 56.48171424 29 49 C28.67 48.34 28.34 47.68 28 47 C28 112.01 28 177.02 28 244 C18.76 244 9.52 244 0 244 C0 163.48 0 82.96 0 0 Z "
          transform="translate(1257,899)" style="fill: #263033;"/>
    <path d="M0 0 C12.94458521 10.68242469 18.60557491 23.57610155 21 40 C21.08400846 41.92215649 21.12207303 43.84673087 21.12025452 45.77072144 C21.12231651 47.46171715 21.12231651 47.46171715 21.12442017 49.18687439 C21.12082489 50.40895096 21.11722961 51.63102753 21.11352539 52.89013672 C21.11367142 54.18823776 21.11381744 55.48633881 21.1139679 56.82377625 C21.11425405 60.37084244 21.10838666 63.91787461 21.10139394 67.46493292 C21.09513018 71.17650014 21.09455421 74.8880682 21.09336853 78.59963989 C21.09026412 85.62243389 21.08206274 92.64521226 21.07201904 99.66799939 C21.06083025 107.66556582 21.05534049 115.66313301 21.05032361 123.66070533 C21.03987937 140.10714746 21.02154497 156.55356809 21 173 C12.42 173 3.84 173 -5 173 C-5.33 165.74 -5.66 158.48 -6 151 C-7.27875 152.340625 -8.5575 153.68125 -9.875 155.0625 C-17.55287731 162.70438726 -25.87210989 168.14377406 -36 172 C-37.24716797 172.48146484 -37.24716797 172.48146484 -38.51953125 172.97265625 C-54.00697033 177.8479116 -73.50275373 176.97299739 -87.90234375 169.4921875 C-100.21419592 162.23005248 -109.25197012 151.72393323 -113.9375 138.125 C-117.45488676 122.90511263 -116.25149664 107.45150437 -108.23828125 94.0546875 C-101.07037407 83.38279323 -91.64962566 77.08172971 -80 72 C-79.29746094 71.69320313 -78.59492187 71.38640625 -77.87109375 71.0703125 C-62.15610832 65.10415365 -44.87881868 65.6114498 -28.375 65.8125 C-26.19271769 65.82759163 -24.01042515 65.84127202 -21.828125 65.85351562 C-16.55185496 65.88612561 -11.27597748 65.93596104 -6 66 C-6.08197263 62.20752038 -6.19470943 58.41652281 -6.3125 54.625 C-6.33505859 53.56410156 -6.35761719 52.50320313 -6.38085938 51.41015625 C-6.66705202 42.92844694 -7.67113912 34.61027728 -12.6875 27.5 C-15 24.17109145 -15 24.17109145 -15 22 C-15.515625 21.7525 -16.03125 21.505 -16.5625 21.25 C-19.07339292 19.96236261 -21.44531037 18.50990234 -23.828125 17 C-34.59000991 12.04488752 -51.13843333 11.79892252 -62.25 15.625 C-64.69585209 16.70208818 -64.69585209 16.70208818 -67 18 C-67.86625 18.45890625 -68.7325 18.9178125 -69.625 19.390625 C-78.57840419 24.34799427 -78.57840419 24.34799427 -85 32 C-90.72996169 31.83566075 -93.62475092 27.82273925 -97.3125 23.9375 C-97.95767578 23.27427734 -98.60285156 22.61105469 -99.26757812 21.92773438 C-100.85447018 20.29382329 -102.43126328 18.65131853 -104 17 C-98.01034858 4.2170647 -82.33435892 -2.75570536 -69.87109375 -7.73828125 C-47.84440414 -15.38371873 -19.35728561 -13.30336448 0 0 Z "
          transform="translate(709,970)" style="fill: #242F33;"/>
    <path d="M0 0 C6.69451055 5.72256069 11.63946574 11.72233398 15.9140625 19.50390625 C8.95320864 25.22080524 1.96125972 30.89366465 -5.0859375 36.50390625 C-7.4986084 34.16906344 -9.79461097 31.85818894 -11.9296875 29.26171875 C-21.76695799 17.47901791 -34.81291595 9.77096814 -50.0859375 7.50390625 C-66.44875212 6.40104612 -81.5971129 5.97604315 -95.0859375 16.50390625 C-96.5709375 17.55578125 -96.5709375 17.55578125 -98.0859375 18.62890625 C-103.04317492 22.82751631 -106.74196802 29.17026545 -108.0859375 35.50390625 C-109.05839856 47.81353995 -108.63630711 57.55984098 -100.43359375 67.5078125 C-89.94484788 77.76704533 -74.7716601 82.3732347 -61.0859375 86.50390625 C-60.0340625 86.82617188 -58.9821875 87.1484375 -57.8984375 87.48046875 C-56.9290625 87.77695312 -55.9596875 88.0734375 -54.9609375 88.37890625 C2.81277515 106.07667646 2.81277515 106.07667646 15.1796875 128.453125 C23.70676404 144.76612032 26.15535144 163.1726921 21.3515625 181.25390625 C20.6024256 183.36085379 19.78926906 185.44612893 18.9140625 187.50390625 C18.4396875 188.66664063 17.9653125 189.829375 17.4765625 191.02734375 C8.79254828 210.27412526 -7.31541176 221.23978758 -26.5859375 228.75390625 C-36.90710324 232.2487128 -47.19777211 232.82508871 -58.0234375 232.75390625 C-59.19583984 232.76164062 -60.36824219 232.769375 -61.57617188 232.77734375 C-72.66955976 232.75284151 -83.42664133 231.52161767 -93.9609375 227.94140625 C-94.71705322 227.68528564 -95.47316895 227.42916504 -96.25219727 227.1652832 C-117.94611058 219.40657775 -133.31497851 203.81649407 -145.2578125 184.58984375 C-146.29252207 181.98354699 -146.11260394 181.09266594 -145.0859375 178.50390625 C-142.08832966 175.86019075 -138.64026204 173.83690876 -135.2734375 171.69140625 C-134.35755859 171.08103516 -133.44167969 170.47066406 -132.49804688 169.84179688 C-131.61310547 169.27009766 -130.72816406 168.69839844 -129.81640625 168.109375 C-129.00582764 167.58496826 -128.19524902 167.06056152 -127.36010742 166.52026367 C-125.0859375 165.50390625 -125.0859375 165.50390625 -122.86108398 165.73828125 C-120.43040152 166.78664052 -120.0532454 167.92967049 -118.9609375 170.31640625 C-110.57683438 186.36889637 -96.61124609 196.49928803 -79.70507812 202.32421875 C-72.28129623 204.60596381 -65.31688349 204.95717229 -57.5859375 204.87890625 C-55.86697266 204.89630859 -55.86697266 204.89630859 -54.11328125 204.9140625 C-39.93099744 204.8656588 -26.32124584 200.73921459 -16.0859375 190.50390625 C-7.11058402 179.00837963 -5.53501073 167.79833273 -7.0859375 153.50390625 C-8.10123059 149.52121064 -9.59778828 146.75085275 -12.0859375 143.50390625 C-12.68277344 142.66859375 -13.27960938 141.83328125 -13.89453125 140.97265625 C-25.6803417 126.17912479 -45.58657402 122.01162427 -62.84069824 116.74734497 C-106.48645542 103.42058079 -106.48645542 103.42058079 -119.0859375 92.50390625 C-119.7975 91.91351562 -120.5090625 91.323125 -121.2421875 90.71484375 C-132.26726065 80.74987379 -138.3741322 65.97775261 -139.4609375 51.33984375 C-140.22751331 33.88873544 -135.28837499 17.55768528 -123.7734375 4.19140625 C-91.29772241 -29.59645895 -35.48496332 -28.70239438 0 0 Z "
          transform="translate(1671.0859375,914.49609375)" style="fill: #253033;"/>
    <path d="M0 0 C0.94093506 0.29801514 0.94093506 0.29801514 1.90087891 0.60205078 C21.55842277 6.93019668 37.58193344 18.50529543 50 35 C48.66276327 38.05947917 47.29999514 39.8639764 44.69921875 41.9453125 C44.05146484 42.46480469 43.40371094 42.98429688 42.73632812 43.51953125 C41.7221582 44.31423828 41.7221582 44.31423828 40.6875 45.125 C40.02298828 45.66253906 39.35847656 46.20007813 38.67382812 46.75390625 C35.25789087 49.46368041 32.22057349 51.67749922 28 53 C27.22398437 52.09378906 26.44796875 51.18757812 25.6484375 50.25390625 C13.89139735 36.85334944 0.36279265 26.22231647 -18.08691406 24.75439453 C-35.85381134 23.92520377 -51.6697348 24.90943002 -65.43359375 37.33203125 C-72.97761431 45.3651903 -74.58819604 54.34519036 -74.3046875 65.01953125 C-73.56714203 74.65490089 -69.27504852 81.72527065 -62 88 C-47.52218361 98.10430936 -30.3927668 102.96534559 -13.68676758 108.02172852 C11.26100933 115.60230256 36.64167788 123.7400403 50.37890625 147.64453125 C52.92806235 152.92097724 54.58739706 158.32564582 56 164 C56.1750708 164.63437988 56.3501416 165.26875977 56.53051758 165.92236328 C60.34318357 182.79484774 55.66991349 201.65951951 47.12353516 216.23291016 C44.28909168 220.69090709 40.80032305 224.36376689 37 228 C36.32582031 228.69351562 35.65164063 229.38703125 34.95703125 230.1015625 C25.35969575 239.42880413 12.85128923 244.82645425 0 248 C-0.61045166 248.17587646 -1.22090332 248.35175293 -1.84985352 248.53295898 C-8.56943979 250.30359162 -15.23516224 250.3381691 -22.15454102 250.31567383 C-24.16674008 250.31253241 -26.1774367 250.33597795 -28.18945312 250.36132812 C-37.16046443 250.36573216 -45.31855003 249.2243252 -54 247 C-55.35955811 246.66572998 -55.35955811 246.66572998 -56.74658203 246.32470703 C-80.53966381 240.25656895 -97.41246559 223.10064203 -110 203 C-110.66 202.01 -111.32 201.02 -112 200 C-112 199.01 -112 198.02 -112 197 C-109.66963208 195.3984344 -107.39793508 193.99783466 -104.9375 192.625 C-103.61152088 191.87027194 -102.2872927 191.11245924 -100.96484375 190.3515625 C-99.98040283 189.78550293 -99.98040283 189.78550293 -98.97607422 189.20800781 C-96.94655693 187.96732934 -95.04435342 186.62033317 -93.12890625 185.2109375 C-90 183 -90 183 -88 183 C-86.95801999 184.71334323 -85.9937434 186.4740346 -85.0625 188.25 C-75.30118249 205.40318658 -60.28511037 215.84648451 -41.484375 221.421875 C-25.22533873 225.20542432 -5.77830219 223.68111445 8.96484375 215.3359375 C19.36732595 208.50743671 25.2966496 199.17271339 28 187 C29.33716704 175.14578885 26.56594834 165.92084541 19.28515625 156.5390625 C5.36033877 141.06704308 -20.4132311 135.92696598 -39.75 130.5 C-52.88573629 126.77025767 -66.86610331 122.06180217 -78 114 C-78.90878906 113.34515625 -79.81757812 112.6903125 -80.75390625 112.015625 C-92.21501745 103.22097641 -100.30106125 91.41358437 -103.6484375 77.2578125 C-104.15498457 72.56380965 -104.18432711 67.90558796 -104.1875 63.1875 C-104.19974609 62.24068359 -104.21199219 61.29386719 -104.22460938 60.31835938 C-104.24377107 51.0377109 -102.65005541 43.33547364 -98.4375 35.0625 C-98.08671387 34.3715625 -97.73592773 33.680625 -97.37451172 32.96875 C-88.47845326 16.14368141 -72.4079661 5.52489315 -54.66259766 -0.26489258 C-37.75975219 -5.23472601 -16.81222843 -5.53446029 0 0 Z "
          transform="translate(1151,897)" style="fill: #253033;"/>
    <path d="M0 0 C43.23 0 86.46 0 131 0 C131 8.91 131 17.82 131 27 C97.01 27 63.02 27 28 27 C28 55.05 28 83.1 28 112 C56.71 112 85.42 112 115 112 C115 120.91 115 129.82 115 139 C86.29 139 57.58 139 28 139 C28 173.32 28 207.64 28 243 C18.76 243 9.52 243 0 243 C0 162.81 0 82.62 0 0 Z "
          transform="translate(454,899)" style="fill: #273032;"/>
    <path d="M0 0 C5.82427634 2.32971054 8.70046693 5.37717953 12.5625 10.125 C14.61806922 12.54951754 16.48299618 14.13555272 19 16 C19 16.66 19 17.32 19 18 C19.66 18 20.32 18 21 18 C25.76744186 22.30232558 25.76744186 22.30232558 27 26 C28.32380436 26.68539349 29.65840214 27.35012508 31 28 C32.59765625 29.65625 32.59765625 29.65625 34.0625 31.5 C36.00872186 33.93664912 37.33393182 35.22262121 40 37 C40 37.66 40 38.32 40 39 C40.99 39.33 41.98 39.66 43 40 C44.71378648 41.61817535 46.37117956 43.29632763 48 45 C49.06573979 46.07309862 50.13421524 47.14348488 51.20491028 48.2116394 C52.42543919 49.43518706 53.64595324 50.65874955 54.86645508 51.88232422 C61.70102756 58.73326687 68.53817132 65.58163761 75.37675953 72.4285717 C79.50714217 76.56417456 83.63658402 80.70070789 87.76391602 84.83935547 C91.76804379 88.85438677 95.774644 92.86693571 99.78293419 96.87781143 C101.3039369 98.40065263 102.82406362 99.92436931 104.34327126 101.44900131 C106.47495063 103.58799222 108.60979284 105.72377962 110.74536133 107.85888672 C111.36329559 108.48041626 111.98122986 109.1019458 112.6178894 109.74230957 C116.34682038 113.46259285 120.19621063 116.98744736 124.19224072 120.41963577 C126.99469288 122.86957211 129.6241405 125.48081411 132.25 128.1171875 C132.79358154 128.65981232 133.33716309 129.20243713 133.8972168 129.76150513 C135.02759386 130.89120964 136.15674133 132.02214579 137.28466797 133.15429688 C139.02065963 134.89572432 140.76203142 136.63164676 142.50390625 138.3671875 C143.60709226 139.47103302 144.70996873 140.57518801 145.8125 141.6796875 C146.33424805 142.19941132 146.85599609 142.71913513 147.39355469 143.25460815 C151 146.88500156 151 146.88500156 151 148 C101.17 148 51.34 148 0 148 C0 99.16 0 50.32 0 0 Z "
          transform="translate(624,619)" style="fill: #676E76;"/>
    <path d="M0 0 C49.5 0 99 0 150 0 C142.73684211 8.47368421 142.73684211 8.47368421 139.125 12.5 C138.34382812 13.3765625 137.56265625 14.253125 136.7578125 15.15625 C134.740018 17.23692195 132.79334663 19.05838742 130.59384155 20.91664124 C124.6973054 26.04979293 119.24863429 31.63629703 113.74072266 37.17749023 C112.52136086 38.40041398 111.30175991 39.62309931 110.0819397 40.8455658 C107.47022947 43.46379225 104.8600378 46.0835197 102.25099564 48.70440483 C98.1279994 52.84577025 94.00059126 56.98271966 89.87240601 61.11891174 C78.13951994 72.87589721 66.41264142 84.63886438 54.68994141 96.40600586 C48.20459049 102.91586522 41.71568172 109.4221569 35.22290075 115.92460591 C31.11481896 120.03924235 27.01129067 124.1583511 22.91103673 128.28078735 C20.36839959 130.83511172 17.82163263 133.38528624 15.27364731 135.93427467 C14.08910029 137.12097791 12.90628603 138.30941351 11.72529602 139.49965668 C10.11947204 141.11757956 8.50768774 142.72931412 6.89419556 144.33958435 C5.5409188 145.69757472 5.5409188 145.69757472 4.16030312 147.08299923 C2 149 2 149 0 149 C0 99.83 0 50.66 0 0 Z "
          transform="translate(624,1280)" style="fill: #6A7179;"/>
    <path d="M0 0 C98.67 0 197.34 0 299 0 C299 0.99 299 1.98 299 3 C298.34 2.67 297.68 2.34 297 2 C295.03643345 1.89418209 293.06925652 1.85334857 291.10287476 1.84178162 C289.21818733 1.82709839 289.21818733 1.82709839 287.29542542 1.81211853 C285.89535561 1.80621396 284.4952854 1.80040354 283.09521484 1.79467773 C281.62695539 1.78510181 280.15869871 1.7750919 278.69044495 1.76467896 C274.6969068 1.73759287 270.70335679 1.7166034 266.70977736 1.69667697 C262.53905025 1.67484022 258.36835986 1.64744025 254.19766235 1.62062073 C246.29644672 1.57066253 238.39521075 1.52573532 230.49395525 1.48259836 C219.81939044 1.42403129 209.1448739 1.35772766 198.47035217 1.29184818 C181.64693395 1.18822458 164.82347447 1.09496797 148 1 C148 49.51 148 98.02 148 148 C143.7300423 145.43802538 141.05384778 143.29538406 137.625 139.8125 C136.90219849 139.08003052 136.90219849 139.08003052 136.16479492 138.33276367 C132.86889206 134.96620672 129.74292188 131.48647092 126.68359375 127.90625 C123.62267704 124.44052528 120.29698477 121.23880269 117 118 C113.63034927 114.63500906 110.26746109 111.26331211 106.90600586 107.89013672 C102.01916474 102.98700937 97.12982392 98.08638296 92.23902035 93.18720818 C89.28782389 90.23077736 86.33757767 87.27341056 83.3894043 84.31396484 C80.52643694 81.44012644 77.66102797 78.56874345 74.7939167 75.69903946 C73.7050196 74.60829897 72.617001 73.51668072 71.52989006 72.42416 C70.01045341 70.89745458 68.48790589 69.3739173 66.96459961 67.85107422 C66.10031845 66.98457245 65.23603729 66.11807068 64.3455658 65.22531128 C62.09072874 62.98914421 62.09072874 62.98914421 59.68971252 61.32180786 C58.85330482 60.66751297 58.85330482 60.66751297 58 60 C58 59.34 58 58.68 58 58 C56.68 57.34 55.36 56.68 54 56 C54 55.34 54 54.68 54 54 C53.10650597 53.61298668 53.10650597 53.61298668 52.19496155 53.21815491 C49.80778063 51.89332252 48.59895419 50.61515266 46.88061523 48.50952148 C42.49957806 43.33860782 37.72194901 38.61530044 32.91015625 33.84765625 C31.95579558 32.89771115 31.001735 31.94746448 30.04795837 30.99693298 C27.05564444 28.01592784 24.05935098 25.038943 21.0625 22.0625 C17.56293384 18.58655327 14.06502705 15.10896828 10.57125664 11.62719536 C9.17503012 10.23746096 7.77577029 8.85077621 6.3764801 7.46412659 C5.11903236 6.21163368 5.11903236 6.21163368 3.83618164 4.93383789 C3.09340469 4.19629776 2.35062775 3.45875763 1.58534241 2.6988678 C0 1 0 1 0 0 Z "
          transform="translate(476,1279)" style="fill: #B7BCC2;"/>
    <path d="M0 0 C0 48.51 0 97.02 0 147 C50.16 147 100.32 147 152 147 C152 147.33 152 147.66 152 148 C53 148 -46 148 -148 148 C-148 147.34 -148 146.68 -148 146 C-146.50026512 144.52082729 -146.50026512 144.52082729 -144.44491577 142.81480408 C-140.39484571 139.36841372 -136.61908324 135.74256695 -132.88134766 131.96313477 C-131.88955002 130.96673729 -131.88955002 130.96673729 -130.87771606 129.95021057 C-129.45802859 128.52342755 -128.03947461 127.09551591 -126.62196732 125.66656685 C-124.38041889 123.4074997 -122.13523369 121.15210538 -119.88900757 118.89768982 C-113.5087818 112.49310627 -107.13436894 106.08275927 -100.76416016 99.66821289 C-96.85585251 95.73320926 -92.94275752 91.80302018 -89.02662277 87.87580681 C-87.53592843 86.37888984 -86.04713609 84.88007635 -84.56026077 83.37936592 C-82.4920849 81.29209313 -80.4179322 79.21094291 -78.34228516 77.13110352 C-77.72619385 76.50625061 -77.11010254 75.88139771 -76.4753418 75.23760986 C-72.22789901 71 -72.22789901 71 -70 71 C-69.01 69.02 -69.01 69.02 -68 67 C-67.34 67 -66.68 67 -66 67 C-66 66.34 -66 65.68 -66 65 C-64.64564514 63.66441345 -64.64564514 63.66441345 -62.70336914 62.07006836 C-57.09634772 57.29771832 -51.94242117 52.08692916 -46.74609375 46.87890625 C-45.67585033 45.80933836 -44.60545866 44.73991879 -43.53492737 43.67063904 C-41.30364087 41.44081776 -39.07414943 39.2092216 -36.84594727 36.97631836 C-34.00968112 34.13435568 -31.16894769 31.29690758 -28.32684231 28.46078587 C-26.11923667 26.25681774 -23.91404779 24.05044381 -21.70955086 21.84336662 C-20.66384021 20.79699551 -19.61740465 19.75134826 -18.57018852 18.70648384 C-12.83206751 12.97842773 -7.26205682 7.17204779 -2 1 C-1 0 -1 0 0 0 Z "
          transform="translate(624,620)" style="fill: #B8BDC3;"/>
    <path d="M0 0 C8.30178564 6.48442583 8.30178564 6.48442583 9.953125 11.79296875 C8.22540244 13.6901352 6.49599766 15.5857218 4.765625 17.48046875 C4.28287109 18.01091797 3.80011719 18.54136719 3.30273438 19.08789062 C0.265739 22.41024127 -2.8405652 25.63355196 -6.046875 28.79296875 C-6.995625 27.94734375 -7.944375 27.10171875 -8.921875 26.23046875 C-22.6875413 14.47113438 -34.8709426 10.66506923 -52.85107422 11.56201172 C-60.4898691 12.36546958 -67.85134954 16.20777888 -73.046875 21.79296875 C-76.72347349 26.84540126 -77.8218194 31.84266249 -77.546875 38.0546875 C-76.29241144 44.92483561 -71.94464298 49.41002429 -66.546875 53.54296875 C-57.6092188 59.33638961 -47.17561729 61.79502508 -37.0234375 64.63671875 C-17.04078544 70.36086195 2.36439074 76.07303322 13.51171875 95.03125 C19.63729746 106.7677924 19.63387322 120.62323919 16.328125 133.29296875 C11.35412416 148.40695025 1.71666427 158.83033191 -12.05078125 166.45703125 C-32.69170575 176.73950407 -54.88463832 175.75930737 -76.28125 168.73046875 C-91.34005287 162.99378194 -103.0886479 153.32106091 -113.046875 140.79296875 C-111.55159668 137.06308006 -109.45932703 135.27522371 -106.296875 132.85546875 C-105.40742187 132.16582031 -104.51796875 131.47617188 -103.6015625 130.765625 C-102.33699219 129.78916016 -102.33699219 129.78916016 -101.046875 128.79296875 C-99.03069571 127.14444569 -97.03900608 125.47055282 -95.046875 123.79296875 C-91.09640535 125.37315661 -88.80202909 127.96968479 -85.921875 131.04296875 C-74.65359723 142.57547854 -60.44357777 148.2141071 -44.359375 148.41796875 C-33.48441121 148.26832331 -23.5402635 145.48514467 -15.63671875 137.6484375 C-10.03002011 131.10499314 -9.27279384 125.10004878 -9.546875 116.4921875 C-10.45216905 109.79442602 -13.01779491 105.19229164 -18.3203125 100.9921875 C-28.83288854 94.30990336 -41.01410643 91.19741438 -52.87353516 87.7956543 C-70.7734763 82.64250461 -89.11416519 76.42228691 -99.3515625 59.65625 C-100.36219483 57.71981945 -101.25206919 55.82719946 -102.046875 53.79296875 C-102.40394531 52.92542969 -102.76101563 52.05789063 -103.12890625 51.1640625 C-104.33429122 46.73747855 -104.38918582 42.61083866 -104.359375 38.04296875 C-104.35373535 37.14916504 -104.3480957 36.25536133 -104.34228516 35.33447266 C-104.10434318 22.4314211 -99.78801422 12.52925612 -90.859375 3.10546875 C-66.615732 -19.80254784 -26.25413158 -19.01741582 0 0 Z "
          transform="translate(872.046875,972.20703125)" style="fill: #242F33;"/>
    <path d="M0 0 C8.91 0 17.82 0 27 0 C27 17.82 27 35.64 27 54 C40.53 54 54.06 54 68 54 C68 61.92 68 69.84 68 78 C54.47 78 40.94 78 27 78 C27.06298509 93.08231972 27.13825899 108.16446007 27.23571491 123.24659538 C27.28058091 130.25031906 27.32001644 137.25399293 27.34643555 144.2578125 C27.37196115 151.02064295 27.4129274 157.78324152 27.46318626 164.54593277 C27.47983279 167.12218578 27.49136081 169.69847726 27.49761391 172.27477646 C27.50727871 175.89159053 27.5353681 179.50783808 27.56762695 183.12451172 C27.56619186 184.18259537 27.56475677 185.24067902 27.5632782 186.33082581 C27.66051832 194.07242785 28.47252306 202.04888746 33.25 208.4375 C38.60757008 213.42978121 43.78690846 214.47065471 50.9375 214.25 C51.93426758 214.24226563 51.93426758 214.24226563 52.95117188 214.234375 C57.74763642 214.15993908 62.16335151 213.60458106 67 213 C67 220.92 67 228.84 67 237 C59.64086702 239.29375573 52.97311029 240.30047038 45.3125 240.3125 C44.52963623 240.31765625 43.74677246 240.3228125 42.94018555 240.328125 C31.16652046 240.18977116 20.88680353 236.97801542 12.1875 228.8125 C1.08508633 217.02354131 -0.16386806 202.4245553 -0.11352539 186.984375 C-0.11367142 185.80302475 -0.11381744 184.6216745 -0.1139679 183.40452576 C-0.11327408 179.51966483 -0.10550656 175.6348525 -0.09765625 171.75 C-0.09523268 169.04858426 -0.09431794 166.34716856 -0.09336853 163.64575195 C-0.09026908 157.27467756 -0.08207448 150.90362047 -0.07201904 144.53255367 C-0.06081473 137.27495121 -0.0553366 130.01734789 -0.05032361 122.75973892 C-0.03989062 107.83981475 -0.02156249 92.91991302 0 78 C-10.89 78 -21.78 78 -33 78 C-33 69.75 -33 61.5 -33 53 C-22.11 53 -11.22 53 0 53 C0 35.51 0 18.02 0 0 Z "
          transform="translate(945,907)" style="fill: #252F32;"/>
    <path d="M0 0 C0.08807085 4.29153445 0.14074921 8.58283224 0.1875 12.875 C0.21263672 14.07898437 0.23777344 15.28296875 0.26367188 16.5234375 C0.37611636 30.31662806 -3.23192904 41.21474593 -12.875 51.3125 C-23.68828595 61.45250589 -35.65319813 64.66687999 -50.26245117 64.61523438 C-59.55936979 64.28646648 -65.81716695 61.48569421 -73 55.5 C-80.32813303 46.33983371 -82.03617365 38.62817094 -81 27 C-79.46648476 20.72502142 -77.05336114 16.1345682 -72 12 C-71.44699219 11.50886719 -70.89398437 11.01773437 -70.32421875 10.51171875 C-52.29002195 -4.53544752 -22.00156554 -0.27793252 0 0 Z "
          transform="translate(703,1057)" style="fill: #D4D5D6;"/>
    <path d="M0 0 C0.94746094 -0.020625 1.89492188 -0.04125 2.87109375 -0.0625 C13.60735735 -0.12124836 21.71732144 2.4202744 29.9375 9.4375 C38.41147725 19.21516606 39.69474348 29.22649597 39.5 41.75 C39.49097656 42.85859375 39.48195313 43.9671875 39.47265625 45.109375 C39.44926167 47.82314592 39.41648175 50.53645545 39.375 53.25 C38.06120361 53.2593457 36.74740723 53.26869141 35.39379883 53.27832031 C30.41154873 53.31888831 25.42987397 53.3848133 20.44799805 53.45751953 C18.31200683 53.48534899 16.1759199 53.50674753 14.03979492 53.52099609 C-4.24829998 53.65011891 -21.15334295 55.76570215 -38.625 61.25 C-39.77373991 57.13223886 -39.76888987 53.15356552 -39.7578125 48.90625 C-39.75876923 48.10014282 -39.75972595 47.29403564 -39.76071167 46.46350098 C-39.76139097 44.76228762 -39.75955413 43.06107164 -39.75537109 41.35986328 C-39.75001931 38.75938075 -39.75532454 36.15907093 -39.76171875 33.55859375 C-39.76105792 31.90364545 -39.75977667 30.24869726 -39.7578125 28.59375 C-39.75983673 27.81761353 -39.76186096 27.04147705 -39.76394653 26.24182129 C-39.72566184 17.40527484 -39.72566184 17.40527484 -36.578125 14.1015625 C-25.15573126 4.69294338 -14.62603969 0.07769477 0 0 Z "
          transform="translate(663.625,982.75)" style="fill: #D4D5D5;"/>
    <path d="M0 0 C42.9 0 85.8 0 130 0 C130 8.58 130 17.16 130 26 C126.37 26 122.74 26 119 26 C118.505 24.515 118.505 24.515 118 23 C118.495 22.505 118.495 22.505 119 22 C122.3 22.33 125.6 22.66 129 23 C129 15.74 129 8.48 129 1 C115.5765028 1.10882687 102.15304665 1.22114884 88.72962856 1.33933926 C82.49416554 1.39410748 76.25869763 1.44744443 70.02319336 1.49731445 C63.98658444 1.54564969 57.9500216 1.59800031 51.91346931 1.65294075 C49.62984453 1.6730564 47.34620728 1.69181286 45.06255913 1.70907402 C30.02154117 1.82392843 15.02254951 2.23664633 0 3 C0 2.01 0 1.02 0 0 Z "
          transform="translate(454,899)" style="fill: #1E2526;"/>
    <path d="M0 0 C0.78532608 -0.00191345 1.57065216 -0.0038269 2.379776 -0.00579834 C4.03988974 -0.00715862 5.70001416 -0.00347309 7.36010742 0.00488281 C9.89721686 0.01557049 12.43361593 0.00498988 14.97070312 -0.0078125 C16.58463698 -0.0064906 18.19857039 -0.00392757 19.8125 0 C20.56989975 -0.00404846 21.3272995 -0.00809692 22.10765076 -0.01226807 C26.19593172 0.0239942 28.21406205 0.3863279 31.97265625 2.265625 C24.05265625 2.760625 24.05265625 2.760625 15.97265625 3.265625 C15.97265625 2.605625 15.97265625 1.945625 15.97265625 1.265625 C15.11285156 1.42160156 14.25304687 1.57757812 13.3671875 1.73828125 C4.98197023 3.11905312 -2.5971536 3.30189422 -11.02734375 2.265625 C-7.28052507 -0.23225412 -4.33741871 -0.02312262 0 0 Z "
          transform="translate(504.02734375,925.734375)" style="fill: #E9EBEB;"/>
    <path d="M0 0 C5.61 0 11.22 0 17 0 C12.75824072 2.12087964 10.6377859 2.25765477 6 2 C5.34 1.67 4.68 1.34 4 1 C4 8.59 4 16.18 4 24 C3.34 24.33 2.68 24.66 2 25 C1.34 16.75 0.68 8.5 0 0 Z "
          transform="translate(482,1039)" style="fill: #EAEFEE;"/>
    <path d="M0 0 C11.22 0 22.44 0 34 0 C33.67 0.99 33.34 1.98 33 3 C29.85418577 3.02888514 26.70840531 3.04675923 23.5625 3.0625 C22.21575195 3.07506836 22.21575195 3.07506836 20.84179688 3.08789062 C19.56079102 3.09272461 19.56079102 3.09272461 18.25390625 3.09765625 C17.06776733 3.10551147 17.06776733 3.10551147 15.85766602 3.11352539 C14 3 14 3 13 2 C10.81707226 1.76518307 8.62796826 1.58636677 6.4375 1.4375 C5.23996094 1.35371094 4.04242187 1.26992187 2.80859375 1.18359375 C1.88175781 1.12300781 0.95492187 1.06242187 0 1 C0 0.67 0 0.34 0 0 Z "
          transform="translate(664,1058)" style="fill: #DBDFE0;"/>
    <path d="M0 0 C0 3 0 3 -1.10095215 4.4617157 C-1.61613403 4.97023575 -2.13131592 5.4787558 -2.66210938 6.00268555 C-3.24271118 6.58306076 -3.82331299 7.16343597 -4.42150879 7.76139832 C-5.05584839 8.38025406 -5.69018799 8.9991098 -6.34375 9.63671875 C-7.30927795 10.59587944 -7.30927795 10.59587944 -8.29431152 11.57441711 C-10.35595596 13.61924143 -12.42777661 15.65340245 -14.5 17.6875 C-15.89781717 19.07027471 -17.29496153 20.45372991 -18.69140625 21.83789062 C-22.11984101 25.23321183 -25.55743964 28.61900414 -29 32 C-29 29 -29 29 -26.48046875 26.2578125 C-25.39004108 25.20599582 -24.29202402 24.1620041 -23.1875 23.125 C-19.46109453 19.60488553 -16.5998035 16.4624676 -14 12 C-11.3125 10.6875 -11.3125 10.6875 -9 10 C-9 9.34 -9 8.68 -9 8 C-8.34 8 -7.68 8 -7 8 C-7 7.34 -7 6.68 -7 6 C-5.46875 4.4921875 -5.46875 4.4921875 -3.5 2.875 C-2.8503125 2.33617187 -2.200625 1.79734375 -1.53125 1.2421875 C-1.0259375 0.83226562 -0.520625 0.42234375 0 0 Z "
          transform="translate(681,1371)" style="fill: #626769;"/>
    <path d="M0 0 C0.66 0.33 1.32 0.66 2 1 C-6.25 9.25 -14.5 17.5 -23 26 C-23.33 24.68 -23.66 23.36 -24 22 C-23.01 21.67 -22.02 21.34 -21 21 C-20.67 20.34 -20.34 19.68 -20 19 C-19.34 19 -18.68 19 -18 19 C-17.62875 18.071875 -17.62875 18.071875 -17.25 17.125 C-15.79371361 14.64931313 -14.62187494 14.04874998 -12 13 C-12 12.34 -12 11.68 -12 11 C-11.01 10.34 -10.02 9.68 -9 9 C-8.525625 8.175 -8.05125 7.35 -7.5625 6.5 C-5.86549307 3.78478892 -4.8732255 3.20490102 -2 2 C-1.34 1.34 -0.68 0.68 0 0 Z "
          transform="translate(649,1403)" style="fill: #616568;"/>
    <path d="M0 0 C-0.33 7.26 -0.66 14.52 -1 22 C-1.66 20.68 -2.32 19.36 -3 18 C-3.33 17.67 -3.66 17.34 -4 17 C-4.15215174 14.71187186 -4.22186492 12.41800872 -4.25 10.125 C-4.27578125 8.86945313 -4.3015625 7.61390625 -4.328125 6.3203125 C-4 3 -4 3 -2.546875 1.0546875 C-1 0 -1 0 0 0 Z "
          transform="translate(623,1078)" style="fill: #1E2828;"/>
    <path d="M0 0 C6.6 0 13.2 0 20 0 C20 0.33 20 0.66 20 1 C5.40318907 4.44419134 5.40318907 4.44419134 -2 4 C-1.34 2.68 -0.68 1.36 0 0 Z "
          transform="translate(1136,1143)" style="fill: #343D41;"/>
    <path d="M0 0 C0.33 0 0.66 0 1 0 C1.04938628 4.23582327 1.08571263 8.47149465 1.10986328 12.70751953 C1.11992963 14.14895547 1.1335838 15.59037095 1.15087891 17.03173828 C1.17510012 19.10193934 1.18647641 21.17187076 1.1953125 23.2421875 C1.20578613 24.4885498 1.21625977 25.73491211 1.22705078 27.01904297 C1 30 1 30 -1 32 C-1.22682931 27.79245079 -1.42818993 23.58405176 -1.625 19.375 C-1.68945312 18.18519531 -1.75390625 16.99539063 -1.8203125 15.76953125 C-1.871875 14.61582031 -1.9234375 13.46210937 -1.9765625 12.2734375 C-2.02893066 11.21560059 -2.08129883 10.15776367 -2.13525391 9.06787109 C-1.98782329 5.72380404 -1.19516693 3.11232889 0 0 Z "
          transform="translate(1453,1041)" style="fill: #1E282B;"/>
    <path d="M0 0 C0 3 0 3 -1.56054688 4.90112305 C-2.62885742 5.94586792 -2.62885742 5.94586792 -3.71875 7.01171875 C-4.48574219 7.76904297 -5.25273438 8.52636719 -6.04296875 9.30664062 C-6.85378906 10.09232422 -7.66460938 10.87800781 -8.5 11.6875 C-9.31082031 12.48478516 -10.12164063 13.28207031 -10.95703125 14.10351562 C-12.96482203 16.0758748 -14.9792687 18.04091492 -17 20 C-17.66 19.67 -18.32 19.34 -19 19 C-16.9042956 14.91889144 -14.98274056 13.20098821 -11 11 C-10.67 10.34 -10.34 9.68 -10 9 C-9.34 9 -8.68 9 -8 9 C-7.67 8.01 -7.34 7.02 -7 6 C-5.37109375 4.39453125 -5.37109375 4.39453125 -3.4375 2.8125 C-2.47650391 2.01779297 -2.47650391 2.01779297 -1.49609375 1.20703125 C-1.00238281 0.80871094 -0.50867188 0.41039062 0 0 Z "
          transform="translate(743,1309)" style="fill: #5E6366;"/>
    <path d="M0 0 C11.22 0 22.44 0 34 0 C34 0.33 34 0.66 34 1 C28.06 1 22.12 1 16 1 C16 1.66 16 2.32 16 3 C14.02 3 12.04 3 10 3 C10 2.67 10 2.34 10 2 C8.72125 1.979375 7.4425 1.95875 6.125 1.9375 C5.40570312 1.92589844 4.68640625 1.91429687 3.9453125 1.90234375 C1.91814596 1.87350758 1.91814596 1.87350758 0 3 C0 2.01 0 1.02 0 0 Z "
          transform="translate(912,961)" style="fill: #161E1E;"/>
    <path d="M0 0 C2.0625 0.4375 2.0625 0.4375 4 1 C3.67 1.99 3.34 2.98 3 4 C2.01 4.33 1.02 4.66 0 5 C-0.33 13.25 -0.66 21.5 -1 30 C-1.33 30 -1.66 30 -2 30 C-2.22716871 26.29257072 -2.4283696 22.58416438 -2.625 18.875 C-2.68945312 17.82828125 -2.75390625 16.7815625 -2.8203125 15.703125 C-3.31438812 5.94513146 -3.31438812 5.94513146 -1 1 C-0.67 0.67 -0.34 0.34 0 0 Z "
          transform="translate(482,921)" style="fill: #1C2526;"/>
    <path d="M0 0 C-3.30040118 1.98974803 -5.60343095 2.18869828 -9.421875 1.9765625 C-10.44667969 1.925 -11.47148438 1.8734375 -12.52734375 1.8203125 C-14.12255859 1.72363281 -14.12255859 1.72363281 -15.75 1.625 C-17.36841797 1.53992188 -17.36841797 1.53992188 -19.01953125 1.453125 C-21.68037699 1.31184116 -24.34025231 1.16044734 -27 1 C-27 0.67 -27 0.34 -27 0 C-7.99544419 -1.33257403 -7.99544419 -1.33257403 0 0 Z "
          transform="translate(1627,919)" style="fill: #1F2828;"/>
    <path d="M0 0 C0 4.09932458 -1.69509742 5.56544863 -4.33203125 8.546875 C-6 10 -6 10 -8.875 10.4375 C-9.57625 10.293125 -10.2775 10.14875 -11 10 C-7.65996398 5.67760044 -4.67248931 2.82522609 0 0 Z "
          transform="translate(1075,907)" style="fill: #333C3F;"/>
    <path d="M0 0 C1.32 0 2.64 0 4 0 C4 6.27 4 12.54 4 19 C3.67 19 3.34 19 3 19 C2.93941406 18.19175781 2.87882813 17.38351562 2.81640625 16.55078125 C2.73261719 15.48214844 2.64882813 14.41351562 2.5625 13.3125 C2.44068359 11.72888672 2.44068359 11.72888672 2.31640625 10.11328125 C1.95306296 6.53816268 1.61644668 3.23289335 0 0 Z "
          transform="translate(699,1058)" style="fill: #E1E6E5;"/>
    <path d="M0 0 C0.33 0 0.66 0 1 0 C1 3.63 1 7.26 1 11 C0.34 11 -0.32 11 -1 11 C-1 12.32 -1 13.64 -1 15 C-1.66 15 -2.32 15 -3 15 C-3 12.36 -3 9.72 -3 7 C-2.01 7 -1.02 7 0 7 C0 4.69 0 2.38 0 0 Z "
          transform="translate(1560,953)" style="fill: #182120;"/>
    <path d="M0 0 C-2.97 2.97 -5.94 5.94 -9 9 C-9.33 8.01 -9.66 7.02 -10 6 C-9.34 5.67 -8.68 5.34 -8 5 C-7.67 4.01 -7.34 3.02 -7 2 C-7.66 1.67 -8.32 1.34 -9 1 C-2.25 -1.125 -2.25 -1.125 0 0 Z "
          transform="translate(771,1284)" style="fill: #5B6266;"/>
    <path d="M0 0 C0 0.33 0 0.66 0 1 C-2.28940956 1.38854209 -4.58164574 1.7604628 -6.875 2.125 C-8.78925781 2.43824219 -8.78925781 2.43824219 -10.7421875 2.7578125 C-12.35480469 2.87769531 -12.35480469 2.87769531 -14 3 C-14.66 2.34 -15.32 1.68 -16 1 C-10.28728907 -1.0662997 -5.96345767 -1.0006709 0 0 Z "
          transform="translate(662,984)" style="fill: #C5CCCD;"/>
    <path d="M0 0 C1.4540625 0.0309375 1.4540625 0.0309375 2.9375 0.0625 C0.6875 2.5625 0.6875 2.5625 -2.0625 5.0625 C-3.3825 5.0625 -4.7025 5.0625 -6.0625 5.0625 C-3.64893617 0.07446809 -3.64893617 0.07446809 0 0 Z "
          transform="translate(1184.0625,943.9375)" style="fill: #232929;"/>
    <path d="M0 0 C0.33 0.66 0.66 1.32 1 2 C1.66 2.33 2.32 2.66 3 3 C2.34 3.66 1.68 4.32 1 5 C-1.3828125 4.7578125 -1.3828125 4.7578125 -4.125 4.125 C-5.03507812 3.92132812 -5.94515625 3.71765625 -6.8828125 3.5078125 C-7.58148437 3.34023438 -8.28015625 3.17265625 -9 3 C-8.360625 2.690625 -7.72125 2.38125 -7.0625 2.0625 C-3.05882353 0 -3.05882353 0 0 0 Z "
          transform="translate(1148,920)" style="fill: #31393A;"/>
    <path d="M0 0 C1.65 0.33 3.3 0.66 5 1 C5.33 2.65 5.66 4.3 6 6 C3.03 5.505 3.03 5.505 0 5 C-1 2 -1 2 0 0 Z "
          transform="translate(1296,917)" style="fill: #1D2728;"/>
    <path d="M0 0 C3.63 0 7.26 0 11 0 C8 3 8 3 5.95703125 3.29296875 C3.97135417 3.1953125 1.98567708 3.09765625 0 3 C0 2.01 0 1.02 0 0 Z "
          transform="translate(472,1143)" style="fill: #F3F3F3;"/>
    <path d="M0 0 C0.99 0.33 1.98 0.66 3 1 C3.33 2.65 3.66 4.3 4 6 C2.35 6.33 0.7 6.66 -1 7 C-1.625 5.1875 -1.625 5.1875 -2 3 C-1.34 2.01 -0.68 1.02 0 0 Z "
          transform="translate(1400,985)" style="fill: #1F2929;"/>
    <path d="M0 0 C0 3.77910478 -0.99703962 4.46106101 -3.5 7.1875 C-4.1496875 7.90292969 -4.799375 8.61835937 -5.46875 9.35546875 C-5.9740625 9.89816406 -6.479375 10.44085937 -7 11 C-7.99 10.67 -8.98 10.34 -10 10 C-6.7 6.7 -3.4 3.4 0 0 Z "
          transform="translate(1555,911)" style="fill: #384042;"/>
    <path d="M0 0 C0.66 0.33 1.32 0.66 2 1 C1.505 1.78375 1.01 2.5675 0.5 3.375 C-1.16537965 5.78552327 -1.16537965 5.78552327 -1 8 C-1.598125 8.12375 -2.19625 8.2475 -2.8125 8.375 C-5.26231348 8.95475985 -5.26231348 8.95475985 -8 11 C-6.63629701 8.00779732 -5.05091917 5.70973471 -2.875 3.25 C-2.33617187 2.63640625 -1.79734375 2.0228125 -1.2421875 1.390625 C-0.62730469 0.70226563 -0.62730469 0.70226563 0 0 Z "
          transform="translate(610,1053)" style="fill: #374041;"/>
    <path d="M0 0 C0.66 0 1.32 0 2 0 C2 2.31 2 4.62 2 7 C1.01 7.495 1.01 7.495 0 8 C-0.66 7.67 -1.32 7.34 -2 7 C-2.33 8.32 -2.66 9.64 -3 11 C-3.66 10.67 -4.32 10.34 -5 10 C-3.35 6.7 -1.7 3.4 0 0 Z "
          transform="translate(1391,1001)" style="fill: #353E3E;"/>
    <path d="M0 0 C0 0.66 0 1.32 0 2 C-3.01490557 3.00496852 -5.04181692 3.10335303 -8.1875 3.0625 C-9.53908203 3.04896484 -9.53908203 3.04896484 -10.91796875 3.03515625 C-11.60503906 3.02355469 -12.29210938 3.01195312 -13 3 C-8.54370064 0.02913376 -5.32064558 -0.12092376 0 0 Z "
          transform="translate(1635,1143)" style="fill: #1F2829;"/>
    <path d="M0 0 C3.12826838 0.29100171 4.37427733 1.19380207 6.6875 3.25 C5.6875 4.25 5.6875 4.25 3.83984375 4.34765625 C1.7890625 4.31510417 -0.26171875 4.28255208 -2.3125 4.25 C-2.6425 3.26 -2.9725 2.27 -3.3125 1.25 C-2.3125 0.25 -2.3125 0.25 0 0 Z "
          transform="translate(575.3125,920.75)" style="fill: #20282B;"/>
    <path d="M0 0 C0.66 1.32 1.32 2.64 2 4 C-0.31 6.31 -2.62 8.62 -5 11 C-5.66 10.34 -6.32 9.68 -7 9 C-6.01 8.67 -5.02 8.34 -4 8 C-4 7.34 -4 6.68 -4 6 C-3.34 6 -2.68 6 -2 6 C-1.855625 5.38125 -1.71125 4.7625 -1.5625 4.125 C-1 2 -1 2 0 0 Z "
          transform="translate(1677,1117)" style="fill: #303738;"/>
    <path d="M0 0 C5.445 0.99 5.445 0.99 11 2 C10.67 2.66 10.34 3.32 10 4 C6.37 3.67 2.74 3.34 -1 3 C-0.67 2.01 -0.34 1.02 0 0 Z "
          transform="translate(1105,1118)" style="fill: #212929;"/>
    <path d="M0 0 C0.66 0 1.32 0 2 0 C2.84098656 4.01804691 3.05404945 7.01803543 2 11 C1.34 11 0.68 11 0 11 C0 7.37 0 3.74 0 0 Z "
          transform="translate(794,1002)" style="fill: #C6CECE;"/>
    <path d="M0 0 C0.99 0 1.98 0 3 0 C4 3 4 3 3.25 5.125 C2 7 2 7 -1 8 C-0.67 5.36 -0.34 2.72 0 0 Z "
          transform="translate(1049,940)" style="fill: #323C3E;"/>
    <path d="M0 0 C0.99 0 1.98 0 3 0 C3 2.97 3 5.94 3 9 C2.01 9 1.02 9 0 9 C0 6.03 0 3.06 0 0 Z "
          transform="translate(483,976)" style="fill: #E8EDEC;"/>
    <path d="M0 0 C7.75 0.75 7.75 0.75 10 3 C6.7 3 3.4 3 0 3 C0 2.01 0 1.02 0 0 Z " transform="translate(1136,1006)"
          style="fill: #1F2928;"/>
    <path d="M0 0 C1.65 0 3.3 0 5 0 C5.33 1.65 5.66 3.3 6 5 C4.02 4.34 2.04 3.68 0 3 C0 2.01 0 1.02 0 0 Z "
          transform="translate(1567,1135)" style="fill: #373F41;"/>
    <path d="M0 0 C3.3 0.66 6.6 1.32 10 2 C9.01 2.33 8.02 2.66 7 3 C7 3.66 7 4.32 7 5 C4.36 4.34 1.72 3.68 -1 3 C-0.67 2.01 -0.34 1.02 0 0 Z "
          transform="translate(1126,1029)" style="fill: #384040;"/>
    <path d="M0 0 C-0.33 0.99 -0.66 1.98 -1 3 C-3.91517292 1.92598892 -5.77810176 1.22189824 -8 -1 C-4.59745511 -2.2151946 -3.06748874 -1.86240388 0 0 Z "
          transform="translate(1084,1013)" style="fill: #333C3B;"/>
    <path d="M0 0 C0.33 0.66 0.66 1.32 1 2 C0.22265625 3.9453125 0.22265625 3.9453125 -0.9375 6.125 C-1.31777344 6.84945312 -1.69804688 7.57390625 -2.08984375 8.3203125 C-2.39019531 8.87460937 -2.69054688 9.42890625 -3 10 C-3.66 9.67 -4.32 9.34 -5 9 C-3.90931332 5.22454612 -3.0916909 2.52956528 0 0 Z "
          transform="translate(1423,992)" style="fill: #1D2527;"/>
    <path d="M0 0 C2.31 0.33 4.62 0.66 7 1 C7 1.66 7 2.32 7 3 C3.52674819 4.1577506 0.63932552 4.06866652 -3 4 C-2.01 3.67 -1.02 3.34 0 3 C0 2.01 0 1.02 0 0 Z "
          transform="translate(812,956)" style="fill: #DBDDDE;"/>
    <path d="M0 0 C0.66 0.33 1.32 0.66 2 1 C2.59355614 3.64860427 2.74209269 6.29197322 3 9 C2.01 9.33 1.02 9.66 0 10 C-0.74926071 6.33694766 -1.2380014 3.57644848 0 0 Z "
          transform="translate(1281,943)" style="fill: #1E2729;"/>
    <path d="M0 0 C0.33 0.66 0.66 1.32 1 2 C-3.3164922 2.76173392 -6.74433453 3.16063604 -11 2 C-11 1.67 -11 1.34 -11 1 C-7.27569643 0.30710631 -3.78916254 -0.11144596 0 0 Z "
          transform="translate(1145,1119)" style="fill: #353D3F;"/>
    <path d="M0 0 C0 2.31 0 4.62 0 7 C-1.32 6.67 -2.64 6.34 -4 6 C-4 4.68 -4 3.36 -4 2 C-1 0 -1 0 0 0 Z "
          transform="translate(1692,1089)" style="fill: #1F2727;"/>
    <path d="M0 0 C4.2742558 1.5830577 6.26531794 4.50568404 9 8 C8.67 8.66 8.34 9.32 8 10 C5.95880212 8.38405168 3.95927063 6.7143618 2 5 C2 4.34 2 3.68 2 3 C1.34 2.67 0.68 2.34 0 2 C0 1.34 0 0.68 0 0 Z "
          transform="translate(772,1033)" style="fill: #D5DADA;"/>
    <path d="M0 0 C2.88437779 1.29299694 4.87219421 2.65941363 7 5 C6.05125 4.979375 5.1025 4.95875 4.125 4.9375 C1.09333717 4.77448174 1.09333717 4.77448174 -1 6 C-0.67 4.02 -0.34 2.04 0 0 Z "
          transform="translate(1084,982)" style="fill: #2E3737;"/>
    <path d="M0 0 C1.5625 1.1875 1.5625 1.1875 3 3 C2.8125 5.625 2.8125 5.625 2 8 C1.01 8.495 1.01 8.495 0 9 C0 6 0 3 0 0 Z "
          transform="translate(1333,982)" style="fill: #182324;"/>
    <path d="M0 0 C2 1 2 1 2.6328125 2.84765625 C2.79523438 3.57855469 2.95765625 4.30945313 3.125 5.0625 C3.29257813 5.79597656 3.46015625 6.52945313 3.6328125 7.28515625 C3.75398438 7.85105469 3.87515625 8.41695312 4 9 C1 8 1 8 0 6 C-0.039992 4.00039988 -0.04346799 1.99952758 0 0 Z "
          transform="translate(1075,965)" style="fill: #303739;"/>
    <path d="M0 0 C2 3 2 3 1.625 6.1875 C1.41875 7.115625 1.2125 8.04375 1 9 C-0.625 7.3125 -0.625 7.3125 -2 5 C-1.1875 2.25 -1.1875 2.25 0 0 Z "
          transform="translate(1204,1053)" style="fill: #323A3B;"/>
    <path d="M0 0 C0.33 1.32 0.66 2.64 1 4 C-1.64 4.66 -4.28 5.32 -7 6 C-2.25 1.125 -2.25 1.125 0 0 Z "
          transform="translate(619,1047)" style="fill: #303838;"/>
    <path d="M0 0 C1.65 0 3.3 0 5 0 C5.33 0.99 5.66 1.98 6 3 C4.1875 3.625 4.1875 3.625 2 4 C1.01 3.34 0.02 2.68 -1 2 C-0.67 1.34 -0.34 0.68 0 0 Z "
          transform="translate(1110,1024)" style="fill: #303937;"/>
    <path d="M0 0 C0.33 0.99 0.66 1.98 1 3 C1.66 3 2.32 3 3 3 C3.1875 5.375 3.1875 5.375 3 8 C1.515 8.99 1.515 8.99 0 10 C0 6.7 0 3.4 0 0 Z "
          transform="translate(730,1008)" style="fill: #DBE1E1;"/>
    <path d="M0 0 C1.98 0 3.96 0 6 0 C5.25 1.9375 5.25 1.9375 4 4 C1.875 4.75 1.875 4.75 0 5 C0 3.35 0 1.7 0 0 Z "
          transform="translate(1666,944)" style="fill: #212A29;"/>
    <path d="M0 0 C0.66 0 1.32 0 2 0 C1.75 2.875 1.75 2.875 1 6 C-1.0625 7.375 -1.0625 7.375 -3 8 C-1.125 2.25 -1.125 2.25 0 0 Z "
          transform="translate(1433,921)" style="fill: #323A3E;"/>
    <path d="M0 0 C0 0.66 0 1.32 0 2 C1.98 1.67 3.96 1.34 6 1 C5.67 1.66 5.34 2.32 5 3 C-1.625 3.25 -1.625 3.25 -5 1 C-3 0 -3 0 0 0 Z "
          transform="translate(1138,919)" style="fill: #1D2526;"/>
    <path d="M0 0 C2.64 0 5.28 0 8 0 C7.01 1.485 7.01 1.485 6 3 C3.375 3.1875 3.375 3.1875 1 3 C0.67 2.01 0.34 1.02 0 0 Z "
          transform="translate(1128,1144)" style="fill: #1D2629;"/>
    <path d="M0 0 C0 0.66 0 1.32 0 2 C-2.95664519 3.4783226 -5.74229737 3.06032783 -9 3 C-8.67 2.34 -8.34 1.68 -8 1 C-5.2303041 0.27113266 -2.87137415 0 0 0 Z "
          transform="translate(669,1143)" style="fill: #C6CBCB;"/>
    <path d="M0 0 C0.66 0.66 1.32 1.32 2 2 C1.625 4.625 1.625 4.625 1 7 C0.01 6.01 -0.98 5.02 -2 4 C-1.34 2.68 -0.68 1.36 0 0 Z "
          transform="translate(1350,1059)" style="fill: #192021;"/>
    <path d="M0 0 C3.63 0.33 7.26 0.66 11 1 C10.34 1.66 9.68 2.32 9 3 C7.32706064 2.69972883 5.66014616 2.36442233 4 2 C3.01 2.33 2.02 2.66 1 3 C0.67 2.01 0.34 1.02 0 0 Z "
          transform="translate(1618,1031)" style="fill: #1C2627;"/>
    <path d="M0 0 C1.65 0 3.3 0 5 0 C5.33 0.66 5.66 1.32 6 2 C5.01 3.485 5.01 3.485 4 5 C2.68 4.34 1.36 3.68 0 3 C0 2.01 0 1.02 0 0 Z "
          transform="translate(700,963)" style="fill: #C8CDCC;"/>
    <path d="M0 0 C0 0.99 0 1.98 0 3 C-1.96466413 4.06775224 -3.96855359 5.06553465 -6 6 C-6.66 5.67 -7.32 5.34 -8 5 C-5.36 3.35 -2.72 1.7 0 0 Z "
          transform="translate(640,988)" style="fill: #C5CACD;"/>
    <path d="M0 0 C0.66 0 1.32 0 2 0 C1.44271087 3.34373475 0.64826111 6.03312999 -1 9 C-2.25541557 5.23375329 -1.37061958 3.62811066 0 0 Z "
          transform="translate(770,987)" style="fill: #D5DADB;"/>
    <path d="M0 0 C2.2477975 2.05233685 3.0022242 3.00667261 4 6 C2.68 6.33 1.36 6.66 0 7 C0 4.69 0 2.38 0 0 Z "
          transform="translate(1284,945)" style="fill: #D8E1E1;"/>
    <path d="M0 0 C0.66 0 1.32 0 2 0 C2.66 1.98 3.32 3.96 4 6 C3.01 5.67 2.02 5.34 1 5 C0.67 5.66 0.34 6.32 0 7 C0 4.69 0 2.38 0 0 Z "
          transform="translate(1291,902)" style="fill: #303A3C;"/>
    <path d="M0 0 C-0.33 0.99 -0.66 1.98 -1 3 C-1.99 2.67 -2.98 2.34 -4 2 C-2 0 -2 0 0 0 Z M-8 6 C-7.67 6.99 -7.34 7.98 -7 9 C-7.99 8.67 -8.98 8.34 -10 8 C-9.34 7.34 -8.68 6.68 -8 6 Z "
          transform="translate(592,654)" style="fill: #AEB2B6;"/>
</svg>